<svg xmlns:xlink="http://www.w3.org/1999/xlink" xmlns="http://www.w3.org/2000/svg" height="882" width="925"><defs><linearGradient id="c" y2="72.119%" x2="100%" y1="27.881%" x1="0%"><stop offset="0%" stop-color="#FF8F71"></stop><stop offset="100%" stop-color="#FF3E55"></stop></linearGradient><linearGradient id="e" y2="58.275%" x2="100%" y1="41.725%" x1="0%"><stop offset="0%" stop-color="#FF8F71"></stop><stop offset="100%" stop-color="#FF3E55"></stop></linearGradient><filter id="b" filterUnits="objectBoundingBox" height="132.8%" width="121.8%" y="-11.7%" x="-10.9%"><feOffset result="shadowOffsetOuter1" in="SourceAlpha" dy="20"></feOffset><feGaussianBlur result="shadowBlurOuter1" in="shadowOffsetOuter1" stdDeviation="20"></feGaussianBlur><feColorMatrix in="shadowBlurOuter1" values="0 0 0 0 0.421821759 0 0 0 0 0.554338424 0 0 0 0 0.893710371 0 0 0 0.243444056 0"></feColorMatrix></filter><rect rx="15" height="427" width="642" y="0" x="0" id="a"></rect></defs><g fill-rule="evenodd" fill="none" transform="translate(40)"><rect rx="300" height="602" width="600" y="144" x="145" transform="matrix(1 0 0 -1 0 890)" opacity=".08" fill="#2D2E40"></rect><rect rx="339.5" height="681" width="679" y="100.5" x="105.5" transform="matrix(1 0 0 -1 0 882)" opacity=".5" stroke="#2D2E40"></rect><rect rx="439.5" height="881" width="879" y=".5" x="5.5" transform="matrix(1 0 0 -1 0 882)" opacity=".25" stroke="#2D2E40"></rect><g transform="translate(0 242)"><mask fill="#fff" id="d"><use xlink:href="#a"></use></mask><g fill-rule="nonzero"><use xlink:href="#a" filter="url(#b)" fill="#000"></use><use xlink:href="#a" fill="url(#c)"></use></g><path mask="url(#d)" fill-rule="nonzero" fill="#2D2E40" d="M3 125h636a3 3 0 013 3v296a3 3 0 01-3 3H3a3 3 0 01-3-3V128a3 3 0 013-3z"></path><rect rx="3" height="137.165" width="135.785" y="47.709" x="90.523" mask="url(#d)" fill-rule="nonzero" fill="#FFF"></rect><ellipse ry="39.36" rx="39.306" cy="116.888" cx="158.416" mask="url(#d)" fill="#2D2E40"></ellipse><rect rx="3" height="325.617" width="302.538" y="47.709" x="248.939" mask="url(#d)" fill-rule="nonzero" fill="#FFF"></rect></g><path transform="translate(0 242)" stroke-linecap="round" stroke-width="8" stroke="url(#e)" d="M209 284c47.125-73.367 81.977-113.013 104.557-118.938 33.87-8.886 23.765 83.14 72.535 72.473 48.77-10.666 54.716-103.974 91.603-108.37 36.887-4.397 56.402 80.946 72.515 88.81 10.742 5.241 24.005-6.094 39.79-34.007"></path></g></svg>